<svg id="Layer_1" data-name="Layer 1" xmlns="http://www.w3.org/2000/svg" viewBox="0 0 396 289"><title>Artboard 1</title><path d="M17.56,261l-1.38-17.39c17.34-13.29,34-27.22,51.33-38.91C79.3,196.78,84.57,183.37,89.62,165c-4.2-4.86-8.06-11.73-13.08-14.62-10.69-6.16-22.12-9.7-33-15.4-7.81-4.1-15.15-10-20.95-13.85C16.3,95,25.43,79.23,34.25,64.05,48.77,39,69.33,26,90.1,16.41c12.4-5.72,26.83-2.7,35.25-3.27,25.55,15.36,25.84,39.55,22.72,67.47l-13.14,4.32c-1-12.56-1.75-23.18-2.5-33.18-36-11-79.91,15.17-95.2,57l73.69,24.89c2.24,14.78,3.93,25.9,5.44,35.87l23.55-1.95,29.65-46.81c-9.73-47.85,35.8-116,71.29-105.83,10,21.14,5.83,52.56-7.77,58.91-12.05-12.7.39-25.11,1.91-41.28-20.48,11-30.58,31.19-40.36,54.31L228,77.27,231,82.64c-2.74,9-5.49,18-7.85,25.8C186.85,124,154,182.05,160,219.09c15.72,4.82,25.16-11.77,34.69-23.56,14.19-17.55,26.19-38.59,39.45-57.7,2.27-3.26,6.18-4.26,9.43-6.36,5.5,14.95-1.26,23.35-6.18,31.13-19.84,31.4-39,64.33-66.23,83.77-6,4.29-15.63,5.87-21.34,2-10.09-6.79-18.19-19.07-17.41-37.47.36-8.41,1.37-16.77,2.32-27.92-18,15.66-35.1,29.21-51.19,44.72-15.47,14.91-30.48,30.43-49.83,33.18C28.64,261.62,23.48,261,17.56,261Z"/><path d="M257.32,161.3H384v22.17l-18.19,2.27L364,212.2l-16.43,3.05c-1,8.41-1.92,16.56-2.94,25.4l-20.16,1.6c-.5,9.33-1,18.13-1.5,28.17H199.46V242.51l16.81-2c.57-7.76,1.13-15.48,1.82-24.92l17.45-3.35c.7-8.55,1.42-17.24,2.19-26.64L255,183.53C255.81,175.85,256.5,169.15,257.32,161.3Z"/></svg>